<mxfile host="65bd71144e">
    <diagram id="X5SzS_FeevJv-DkIXQUU" name="第 1 页">
        <mxGraphModel dx="930" dy="659" grid="1" gridSize="10" guides="1" tooltips="1" connect="1" arrows="1" fold="1" page="1" pageScale="1" pageWidth="827" pageHeight="1169" math="0" shadow="0">
            <root>
                <mxCell id="0"/>
                <mxCell id="1" parent="0"/>
                <mxCell id="193" value="&lt;font style=&quot;font-size: 20px;&quot;&gt;病人端&lt;/font&gt;" style="shape=umlActor;verticalLabelPosition=bottom;verticalAlign=top;html=1;outlineConnect=0;" parent="1" vertex="1">
                    <mxGeometry x="40" y="40" width="30" height="60" as="geometry"/>
                </mxCell>
                <mxCell id="194" value="开始" style="strokeWidth=2;html=1;shape=mxgraph.flowchart.terminator;whiteSpace=wrap;fontSize=20;" parent="1" vertex="1">
                    <mxGeometry x="160" y="40" width="80" height="40" as="geometry"/>
                </mxCell>
                <mxCell id="195" value="" style="endArrow=classic;html=1;fontSize=20;exitX=0.5;exitY=1;exitDx=0;exitDy=0;exitPerimeter=0;strokeWidth=1;" parent="1" edge="1">
                    <mxGeometry width="50" height="50" relative="1" as="geometry">
                        <mxPoint x="199.5" y="80" as="sourcePoint"/>
                        <mxPoint x="199.5" y="120" as="targetPoint"/>
                    </mxGeometry>
                </mxCell>
                <mxCell id="196" value="导航页面" style="rounded=1;whiteSpace=wrap;html=1;fontSize=20;" parent="1" vertex="1">
                    <mxGeometry x="150" y="120" width="99.75" height="38.75" as="geometry"/>
                </mxCell>
                <mxCell id="197" value="" style="endArrow=classic;html=1;fontSize=20;exitX=0.5;exitY=1;exitDx=0;exitDy=0;exitPerimeter=0;strokeWidth=1;entryX=0.5;entryY=0;entryDx=0;entryDy=0;" parent="1" edge="1">
                    <mxGeometry width="50" height="50" relative="1" as="geometry">
                        <mxPoint x="199.5" y="158.75" as="sourcePoint"/>
                        <mxPoint x="200" y="196.25" as="targetPoint"/>
                    </mxGeometry>
                </mxCell>
                <mxCell id="198" value="前端" style="text;html=1;strokeColor=none;fillColor=none;align=center;verticalAlign=middle;whiteSpace=wrap;rounded=0;fontSize=20;" parent="1" vertex="1">
                    <mxGeometry x="140" y="163.75" width="60" height="30" as="geometry"/>
                </mxCell>
                <mxCell id="199" value="点击" style="text;html=1;strokeColor=none;fillColor=none;align=center;verticalAlign=middle;whiteSpace=wrap;rounded=0;fontSize=20;" parent="1" vertex="1">
                    <mxGeometry x="200" y="163.75" width="60" height="30" as="geometry"/>
                </mxCell>
                <mxCell id="200" value="缴费" style="rounded=1;whiteSpace=wrap;html=1;fontSize=20;" parent="1" vertex="1">
                    <mxGeometry x="160" y="200" width="80" height="38.75" as="geometry"/>
                </mxCell>
                <mxCell id="201" value="" style="endArrow=classic;html=1;fontSize=20;exitX=0.5;exitY=1;exitDx=0;exitDy=0;exitPerimeter=0;strokeWidth=1;" parent="1" edge="1">
                    <mxGeometry width="50" height="50" relative="1" as="geometry">
                        <mxPoint x="199" y="238.75" as="sourcePoint"/>
                        <mxPoint x="199" y="278.75" as="targetPoint"/>
                    </mxGeometry>
                </mxCell>
                <mxCell id="202" value="缴费页面" style="rounded=1;whiteSpace=wrap;html=1;fontSize=20;" parent="1" vertex="1">
                    <mxGeometry x="149.63" y="280.63" width="100.12" height="38.75" as="geometry"/>
                </mxCell>
                <mxCell id="203" value="进入" style="text;html=1;strokeColor=none;fillColor=none;align=center;verticalAlign=middle;whiteSpace=wrap;rounded=0;fontSize=20;" parent="1" vertex="1">
                    <mxGeometry x="140" y="238.75" width="60" height="30" as="geometry"/>
                </mxCell>
                <mxCell id="204" value="" style="endArrow=classic;html=1;fontSize=20;exitX=0.5;exitY=1;exitDx=0;exitDy=0;exitPerimeter=0;strokeWidth=1;" parent="1" edge="1">
                    <mxGeometry width="50" height="50" relative="1" as="geometry">
                        <mxPoint x="200" y="319.38" as="sourcePoint"/>
                        <mxPoint x="200" y="359.38" as="targetPoint"/>
                    </mxGeometry>
                </mxCell>
                <mxCell id="205" value="&lt;font style=&quot;font-size: 20px;&quot;&gt;缴费&lt;/font&gt;" style="shape=process;whiteSpace=wrap;html=1;backgroundOutline=1;" parent="1" vertex="1">
                    <mxGeometry x="160" y="360" width="80.25" height="40" as="geometry"/>
                </mxCell>
                <mxCell id="206" value="" style="endArrow=classic;html=1;fontSize=20;strokeWidth=1;entryX=0.5;entryY=0;entryDx=0;entryDy=0;entryPerimeter=0;exitX=0.5;exitY=1;exitDx=0;exitDy=0;" parent="1" source="205" target="207" edge="1">
                    <mxGeometry width="50" height="50" relative="1" as="geometry">
                        <mxPoint x="300" y="430" as="sourcePoint"/>
                        <mxPoint x="270" y="430" as="targetPoint"/>
                    </mxGeometry>
                </mxCell>
                <mxCell id="207" value="结束" style="strokeWidth=2;html=1;shape=mxgraph.flowchart.terminator;whiteSpace=wrap;fontSize=20;" parent="1" vertex="1">
                    <mxGeometry x="160" y="438.75" width="80" height="40" as="geometry"/>
                </mxCell>
                <mxCell id="208" value="&lt;font style=&quot;font-size: 20px;&quot;&gt;病人端&lt;/font&gt;" style="shape=umlActor;verticalLabelPosition=bottom;verticalAlign=top;html=1;outlineConnect=0;" parent="1" vertex="1">
                    <mxGeometry x="360.5" y="40" width="30" height="60" as="geometry"/>
                </mxCell>
                <mxCell id="209" value="开始" style="strokeWidth=2;html=1;shape=mxgraph.flowchart.terminator;whiteSpace=wrap;fontSize=20;" parent="1" vertex="1">
                    <mxGeometry x="480" y="40" width="80" height="40" as="geometry"/>
                </mxCell>
                <mxCell id="210" value="" style="endArrow=classic;html=1;fontSize=20;exitX=0.5;exitY=1;exitDx=0;exitDy=0;exitPerimeter=0;strokeWidth=1;" parent="1" edge="1">
                    <mxGeometry width="50" height="50" relative="1" as="geometry">
                        <mxPoint x="519.5" y="80" as="sourcePoint"/>
                        <mxPoint x="519.5" y="120" as="targetPoint"/>
                    </mxGeometry>
                </mxCell>
                <mxCell id="211" value="获取账单列表" style="rounded=1;whiteSpace=wrap;html=1;fontSize=20;" parent="1" vertex="1">
                    <mxGeometry x="450.13" y="120" width="139.75" height="38.75" as="geometry"/>
                </mxCell>
                <mxCell id="212" value="" style="shape=flexArrow;endArrow=classic;html=1;exitX=1;exitY=0.5;exitDx=0;exitDy=0;entryX=0;entryY=0.5;entryDx=0;entryDy=0;" parent="1" target="213" edge="1">
                    <mxGeometry width="50" height="50" relative="1" as="geometry">
                        <mxPoint x="590.5" y="139.25" as="sourcePoint"/>
                        <mxPoint x="735.5" y="138.875" as="targetPoint"/>
                    </mxGeometry>
                </mxCell>
                <mxCell id="213" value="&lt;font style=&quot;font-size: 20px;&quot;&gt;获得未缴账单信息接口&lt;/font&gt;" style="rounded=0;whiteSpace=wrap;html=1;fillColor=none;" parent="1" vertex="1">
                    <mxGeometry x="700" y="112.19" width="115" height="54.37" as="geometry"/>
                </mxCell>
                <mxCell id="214" value="" style="endArrow=classic;html=1;fontSize=20;exitX=0.5;exitY=1;exitDx=0;exitDy=0;exitPerimeter=0;strokeWidth=1;" parent="1" edge="1">
                    <mxGeometry width="50" height="50" relative="1" as="geometry">
                        <mxPoint x="519.5" y="159" as="sourcePoint"/>
                        <mxPoint x="519.5" y="199" as="targetPoint"/>
                    </mxGeometry>
                </mxCell>
                <mxCell id="215" value="选择账单" style="rounded=1;whiteSpace=wrap;html=1;fontSize=20;" parent="1" vertex="1">
                    <mxGeometry x="470.01" y="200" width="100" height="38.75" as="geometry"/>
                </mxCell>
                <mxCell id="216" value="前端" style="text;html=1;strokeColor=none;fillColor=none;align=center;verticalAlign=middle;whiteSpace=wrap;rounded=0;fontSize=20;" parent="1" vertex="1">
                    <mxGeometry x="460.25" y="170" width="60" height="30" as="geometry"/>
                </mxCell>
                <mxCell id="217" value="" style="endArrow=classic;html=1;fontSize=20;exitX=0.5;exitY=1;exitDx=0;exitDy=0;exitPerimeter=0;strokeWidth=1;" parent="1" edge="1">
                    <mxGeometry width="50" height="50" relative="1" as="geometry">
                        <mxPoint x="519.25" y="240.63" as="sourcePoint"/>
                        <mxPoint x="519.25" y="280.63" as="targetPoint"/>
                    </mxGeometry>
                </mxCell>
                <mxCell id="218" value="呈现账单信息" style="rounded=1;whiteSpace=wrap;html=1;fontSize=20;" parent="1" vertex="1">
                    <mxGeometry x="450" y="280.63" width="140" height="38.75" as="geometry"/>
                </mxCell>
                <mxCell id="221" value="" style="endArrow=classic;html=1;fontSize=20;exitX=0.5;exitY=1;exitDx=0;exitDy=0;exitPerimeter=0;strokeWidth=1;" parent="1" edge="1">
                    <mxGeometry width="50" height="50" relative="1" as="geometry">
                        <mxPoint x="519.25" y="320" as="sourcePoint"/>
                        <mxPoint x="519.25" y="360" as="targetPoint"/>
                    </mxGeometry>
                </mxCell>
                <mxCell id="222" value="确认缴费" style="rounded=1;whiteSpace=wrap;html=1;fontSize=20;" parent="1" vertex="1">
                    <mxGeometry x="470" y="360" width="100" height="38.75" as="geometry"/>
                </mxCell>
                <mxCell id="223" value="前端" style="text;html=1;strokeColor=none;fillColor=none;align=center;verticalAlign=middle;whiteSpace=wrap;rounded=0;fontSize=20;" parent="1" vertex="1">
                    <mxGeometry x="460.5" y="330" width="60" height="30" as="geometry"/>
                </mxCell>
                <mxCell id="224" value="" style="endArrow=classic;html=1;fontSize=20;exitX=0.5;exitY=1;exitDx=0;exitDy=0;exitPerimeter=0;strokeWidth=1;" parent="1" edge="1">
                    <mxGeometry width="50" height="50" relative="1" as="geometry">
                        <mxPoint x="519.25" y="400" as="sourcePoint"/>
                        <mxPoint x="519.25" y="440" as="targetPoint"/>
                    </mxGeometry>
                </mxCell>
                <mxCell id="239" value="病人挂号流程" style="text;html=1;strokeColor=none;fillColor=none;align=center;verticalAlign=middle;whiteSpace=wrap;rounded=0;fontSize=24;fontStyle=1" parent="1" vertex="1">
                    <mxGeometry x="320" y="600" width="160" height="40" as="geometry"/>
                </mxCell>
                <mxCell id="240" value="点击" style="text;html=1;strokeColor=none;fillColor=none;align=center;verticalAlign=middle;whiteSpace=wrap;rounded=0;fontSize=20;" vertex="1" parent="1">
                    <mxGeometry x="520.25" y="330" width="60" height="30" as="geometry"/>
                </mxCell>
                <mxCell id="242" value="后端" style="text;html=1;strokeColor=none;fillColor=none;align=center;verticalAlign=middle;whiteSpace=wrap;rounded=0;fontSize=20;" vertex="1" parent="1">
                    <mxGeometry x="460.25" y="408.75" width="60" height="30" as="geometry"/>
                </mxCell>
                <mxCell id="243" value="&lt;font style=&quot;font-size: 20px;&quot;&gt;判断&lt;/font&gt;" style="rhombus;whiteSpace=wrap;html=1;" vertex="1" parent="1">
                    <mxGeometry x="480" y="438.75" width="80" height="41.25" as="geometry"/>
                </mxCell>
                <mxCell id="245" value="" style="edgeStyle=segmentEdgeStyle;endArrow=classic;html=1;curved=0;rounded=0;endSize=8;startSize=8;fontSize=20;" edge="1" parent="1">
                    <mxGeometry width="50" height="50" relative="1" as="geometry">
                        <mxPoint x="480" y="460" as="sourcePoint"/>
                        <mxPoint x="420" y="540" as="targetPoint"/>
                        <Array as="points">
                            <mxPoint x="420" y="459"/>
                        </Array>
                    </mxGeometry>
                </mxCell>
                <mxCell id="246" value="" style="edgeStyle=segmentEdgeStyle;endArrow=classic;html=1;curved=0;rounded=0;endSize=8;startSize=8;fontSize=20;" edge="1" parent="1">
                    <mxGeometry width="50" height="50" relative="1" as="geometry">
                        <mxPoint x="560" y="458.75" as="sourcePoint"/>
                        <mxPoint x="620" y="540" as="targetPoint"/>
                    </mxGeometry>
                </mxCell>
                <mxCell id="247" value="true" style="text;html=1;strokeColor=none;fillColor=none;align=center;verticalAlign=middle;whiteSpace=wrap;rounded=0;fontSize=20;" vertex="1" parent="1">
                    <mxGeometry x="420" y="430" width="60" height="30" as="geometry"/>
                </mxCell>
                <mxCell id="248" value="false" style="text;html=1;strokeColor=none;fillColor=none;align=center;verticalAlign=middle;whiteSpace=wrap;rounded=0;fontSize=20;" vertex="1" parent="1">
                    <mxGeometry x="560" y="430" width="60" height="30" as="geometry"/>
                </mxCell>
                <mxCell id="249" value="结束" style="strokeWidth=2;html=1;shape=mxgraph.flowchart.terminator;whiteSpace=wrap;fontSize=20;" vertex="1" parent="1">
                    <mxGeometry x="380.5" y="540" width="80" height="40" as="geometry"/>
                </mxCell>
                <mxCell id="250" value="返回信息" style="rounded=1;whiteSpace=wrap;html=1;fontSize=20;" vertex="1" parent="1">
                    <mxGeometry x="570" y="540" width="100.12" height="38.75" as="geometry"/>
                </mxCell>
                <mxCell id="251" value="" style="endArrow=none;dashed=1;html=1;dashPattern=1 3;strokeWidth=2;fontSize=20;exitX=1;exitY=0.5;exitDx=0;exitDy=0;" edge="1" parent="1" source="250">
                    <mxGeometry width="50" height="50" relative="1" as="geometry">
                        <mxPoint x="390" y="360" as="sourcePoint"/>
                        <mxPoint x="730" y="559" as="targetPoint"/>
                    </mxGeometry>
                </mxCell>
                <mxCell id="252" value="医保余额不足" style="text;html=1;strokeColor=none;fillColor=none;align=center;verticalAlign=middle;whiteSpace=wrap;rounded=0;fontSize=20;" vertex="1" parent="1">
                    <mxGeometry x="727.5" y="544.38" width="82.5" height="30" as="geometry"/>
                </mxCell>
                <mxCell id="253" value="" style="shape=flexArrow;endArrow=classic;html=1;exitX=1;exitY=0;exitDx=0;exitDy=0;" edge="1" parent="1" source="243">
                    <mxGeometry width="50" height="50" relative="1" as="geometry">
                        <mxPoint x="670" y="310" as="sourcePoint"/>
                        <mxPoint x="640" y="400" as="targetPoint"/>
                    </mxGeometry>
                </mxCell>
                <mxCell id="254" value="&lt;span style=&quot;font-size: 20px;&quot;&gt;账单缴费接口&lt;/span&gt;" style="rounded=0;whiteSpace=wrap;html=1;fillColor=none;" vertex="1" parent="1">
                    <mxGeometry x="640" y="375.63" width="100" height="54.37" as="geometry"/>
                </mxCell>
            </root>
        </mxGraphModel>
    </diagram>
</mxfile>